# xmcd CD database file
#
# Track frame offsets:
#	150
#	17489
#	35912
#	51123
#	64368
#	75004
#	92683
#	106720
#	119591
#
# Disc length: 1841 seconds
#
# Revision: 0
# Processed by: cddbd v1.5.2PL0 Copyright (c) Steve Scherf et al.
# Submitted via: CDex 1.51
#
DISCID=69072f09
DTITLE=Joe Nichols - A Classic Voice
DYEAR=2007
DGENRE=Country
TTITLE0=Brokenheartsville
TTITLE1=The Impossible
TTITLE2=She Only Smokes When She Drinks
TTITLE3=Cool To Be A Fool
TTITLE4=What's A Guy Gotta Do
TTITLE5=If Nobody Believed In You
TTITLE6=Tequila Makes Her Clothes Fall Off
TTITLE7=Size Matters (Someday)
TTITLE8=I'll Wait For You
EXTD=YEAR: 2007
EXTT0=
EXTT1=
EXTT2=
EXTT3=
EXTT4=
EXTT5=
EXTT6=
EXTT7=
EXTT8=
PLAYORDER=
